<svg width="25" height="24" viewBox="0 0 25 24" fill="none" xmlns="http://www.w3.org/2000/svg">
<path d="M12.4324 22C6.90937 22 2.43237 17.523 2.43237 12C2.43237 6.477 6.90937 2 12.4324 2C17.9554 2 22.4324 6.477 22.4324 12C22.4324 17.523 17.9554 22 12.4324 22ZM12.4324 20C14.5541 20 16.5889 19.1571 18.0892 17.6569C19.5895 16.1566 20.4324 14.1217 20.4324 12C20.4324 9.87827 19.5895 7.84344 18.0892 6.34315C16.5889 4.84285 14.5541 4 12.4324 4C10.3106 4 8.27581 4.84285 6.77552 6.34315C5.27523 7.84344 4.43237 9.87827 4.43237 12C4.43237 14.1217 5.27523 16.1566 6.77552 17.6569C8.27581 19.1571 10.3106 20 12.4324 20ZM11.4354 16L7.19237 11.757L8.60637 10.343L11.4354 13.172L17.0914 7.515L18.5064 8.929L11.4354 16Z" fill="#DD226D"/>
</svg>
