<svg width="69" height="68" viewBox="0 0 69 68" fill="none" xmlns="http://www.w3.org/2000/svg">
<mask id="path-1-inside-1_162_3944" fill="white">
<path fill-rule="evenodd" clip-rule="evenodd" d="M38.8314 63.0111C54.7853 60.3948 65.5975 45.3407 62.9813 29.3868C62.0032 23.4225 59.2868 18.1768 55.4349 14.0827L57.8028 13.8358C59.4849 13.6604 60.7063 12.1547 60.5309 10.4726C60.3555 8.79061 58.8498 7.56923 57.1678 7.7446L53.5904 8.11759L53.883 6.10808C54.1267 4.43457 52.9676 2.88039 51.2941 2.63672C49.6206 2.39304 48.0664 3.55215 47.8227 5.22565L47.411 8.05337C42.0381 5.30348 35.7702 4.18525 29.357 5.23695C13.4031 7.85322 2.59088 22.9073 5.20715 38.8612C7.82342 54.8151 22.8775 65.6273 38.8314 63.0111Z"/>
</mask>
<path fill-rule="evenodd" clip-rule="evenodd" d="M38.8314 63.0111C54.7853 60.3948 65.5975 45.3407 62.9813 29.3868C62.0032 23.4225 59.2868 18.1768 55.4349 14.0827L57.8028 13.8358C59.4849 13.6604 60.7063 12.1547 60.5309 10.4726C60.3555 8.79061 58.8498 7.56923 57.1678 7.7446L53.5904 8.11759L53.883 6.10808C54.1267 4.43457 52.9676 2.88039 51.2941 2.63672C49.6206 2.39304 48.0664 3.55215 47.8227 5.22565L47.411 8.05337C42.0381 5.30348 35.7702 4.18525 29.357 5.23695C13.4031 7.85322 2.59088 22.9073 5.20715 38.8612C7.82342 54.8151 22.8775 65.6273 38.8314 63.0111Z" fill="#121632"/>
<path d="M55.4349 14.0827L55.3312 13.0881L53.3231 13.2974L54.7066 14.7679L55.4349 14.0827ZM57.8028 13.8358L57.6991 12.8412L57.8028 13.8358ZM60.5309 10.4726L59.5363 10.5763L59.5363 10.5764L60.5309 10.4726ZM57.1678 7.7446L57.2715 8.73921L57.1678 7.7446ZM53.5904 8.11759L52.6009 7.9735L52.4157 9.2455L53.6941 9.1122L53.5904 8.11759ZM53.883 6.10808L52.8935 5.96399L52.8935 5.96399L53.883 6.10808ZM51.2941 2.63672L51.15 3.62628L51.15 3.62628L51.2941 2.63672ZM47.8227 5.22565L46.8332 5.08156L46.8332 5.08157L47.8227 5.22565ZM47.411 8.05337L46.9554 8.94355L48.1992 9.58015L48.4006 8.19745L47.411 8.05337ZM61.9944 29.5487C64.5213 44.9575 54.0784 59.4973 38.6696 62.0242L38.9932 63.9979C55.4921 61.2922 66.6737 45.7239 63.9681 29.225L61.9944 29.5487ZM54.7066 14.7679C58.4264 18.7217 61.0495 23.7867 61.9944 29.5487L63.9681 29.225C62.9568 23.0583 60.1471 17.6319 56.1632 13.3974L54.7066 14.7679ZM55.5386 15.0773L57.9065 14.8304L57.6991 12.8412L55.3312 13.0881L55.5386 15.0773ZM57.9065 14.8304C60.1379 14.5977 61.7582 12.6003 61.5255 10.3689L59.5363 10.5764C59.6544 11.7091 58.8319 12.7231 57.6991 12.8412L57.9065 14.8304ZM61.5255 10.3689C61.2928 8.1376 59.2954 6.51734 57.064 6.74999L57.2715 8.73921C58.4042 8.62111 59.4182 9.44362 59.5363 10.5763L61.5255 10.3689ZM57.064 6.74999L53.4867 7.12298L53.6941 9.1122L57.2715 8.73921L57.064 6.74999ZM54.58 8.26168L54.8726 6.25217L52.8935 5.96399L52.6009 7.9735L54.58 8.26168ZM54.8726 6.25217C55.1958 4.03214 53.6582 1.97041 51.4382 1.64715L51.15 3.62628C52.277 3.79038 53.0576 4.83701 52.8935 5.96399L54.8726 6.25217ZM51.4382 1.64715C49.2182 1.3239 47.1564 2.86154 46.8332 5.08156L48.8123 5.36974C48.9764 4.24276 50.023 3.46218 51.15 3.62628L51.4382 1.64715ZM46.8332 5.08157L46.4214 7.90928L48.4006 8.19745L48.8123 5.36974L46.8332 5.08157ZM29.5189 6.22376C35.7142 5.2078 41.7662 6.28771 46.9554 8.94355L47.8666 7.16318C42.3099 4.31926 35.8263 3.16269 29.1952 4.25013L29.5189 6.22376ZM6.19397 38.6994C3.66707 23.2905 14.11 8.75066 29.5189 6.22376L29.1952 4.25013C12.6963 6.95577 1.51468 22.5241 4.22033 39.023L6.19397 38.6994ZM38.6696 62.0242C23.2607 64.5511 8.72086 54.1082 6.19397 38.6994L4.22033 39.023C6.92597 55.5219 22.4943 66.7035 38.9932 63.9979L38.6696 62.0242Z" fill="white" mask="url(#path-1-inside-1_162_3944)"/>
<rect x="11.3089" y="29.7953" width="43.5692" height="15.918" rx="2.82986" transform="rotate(-9.31302 11.3089 29.7953)" fill="white" stroke="white"/>
<rect x="44.9575" y="25.5049" width="3.57788" height="9.49142" rx="1.78894" transform="rotate(36.8693 44.9575 25.5049)" fill="#121632"/>
<rect width="3.57788" height="9.49142" rx="1.78894" transform="matrix(-0.480841 0.876808 0.876808 0.480841 19.2432 29.9595)" fill="#121632"/>
<rect x="49.6501" y="34.1711" width="3.57788" height="9.49142" rx="1.78894" transform="rotate(112.632 49.6501 34.1711)" fill="#121632"/>
<rect width="3.57788" height="9.49142" rx="1.78894" transform="matrix(0.731625 0.681708 0.681708 -0.731625 18.5483 39.7913)" fill="#121632"/>
</svg>
