<svg width="222" height="222" viewBox="0 0 222 222" fill="none" xmlns="http://www.w3.org/2000/svg">
<rect x="157.634" y="5.5813" width="20.1561" height="53.4701" rx="10.078" transform="rotate(8.28448 157.634 5.5813)" fill="white"/>
<rect x="196.961" y="22.8" width="20.1561" height="53.4701" rx="10.078" transform="rotate(84.0476 196.961 22.8)" fill="white"/>
<circle cx="111" cy="110.665" r="96.3434" transform="rotate(-9.31302 111 110.665)" fill="white"/>
<rect x="34.1171" y="95.0593" width="146.687" height="55.6806" rx="4" transform="rotate(-9.31302 34.1171 95.0593)" fill="#DD226D"/>
<path d="M65.09 129.076L63.7321 120.793C62.5922 113.84 67.3049 107.279 74.2584 106.139V106.139C81.2118 104.999 87.7727 109.712 88.9126 116.665L90.2705 124.948" stroke="white" stroke-width="10" stroke-linecap="round"/>
<path d="M135.222 116.575L133.865 108.292C132.725 101.339 137.437 94.7781 144.391 93.6382V93.6382C151.344 92.4982 157.905 97.211 159.045 104.164L160.403 112.447" stroke="white" stroke-width="10" stroke-linecap="round"/>
</svg>
